<svg xmlns="http://www.w3.org/2000/svg" xmlns:xlink="http://www.w3.org/1999/xlink" width="120" zoomAndPan="magnify" viewBox="0 0 90 30.000001" height="40" preserveAspectRatio="xMidYMid meet" version="1.0"><defs><g/></defs><g fill="#545454" fill-opacity="1"><g transform="translate(3.330137, 17.927421)"><g><path d="M 3.734375 -8.890625 C 4.742188 -8.890625 5.53125 -8.632812 6.09375 -8.125 C 6.664062 -7.625 6.953125 -6.925781 6.953125 -6.03125 C 6.953125 -5.519531 6.847656 -5.039062 6.640625 -4.59375 C 6.441406 -4.144531 6.113281 -3.78125 5.65625 -3.5 C 5.207031 -3.226562 4.628906 -3.09375 3.921875 -3.09375 L 2.640625 -3.09375 L 2.640625 0 L 1.21875 0 L 1.21875 -8.890625 Z M 3.921875 -4.453125 C 4.316406 -4.453125 4.632812 -4.535156 4.875 -4.703125 C 5.113281 -4.867188 5.285156 -5.070312 5.390625 -5.3125 C 5.492188 -5.550781 5.546875 -5.78125 5.546875 -6 C 5.546875 -6.375 5.421875 -6.71875 5.171875 -7.03125 C 4.929688 -7.351562 4.53125 -7.515625 3.96875 -7.515625 L 2.640625 -7.515625 L 2.640625 -4.453125 Z M 3.921875 -4.453125 "/></g></g></g><g fill="#545454" fill-opacity="1"><g transform="translate(13.924745, 17.927421)"><g><path d="M 6.078125 0 L 4.078125 -3.09375 L 2.640625 -3.09375 L 2.640625 0 L 1.21875 0 L 1.21875 -8.890625 L 3.71875 -8.890625 C 4.707031 -8.890625 5.5 -8.632812 6.09375 -8.125 C 6.695312 -7.625 7 -6.925781 7 -6.03125 C 7 -5.476562 6.882812 -4.96875 6.65625 -4.5 C 6.425781 -4.039062 6.0625 -3.679688 5.5625 -3.421875 L 7.71875 0 Z M 2.640625 -4.453125 L 3.921875 -4.453125 C 4.484375 -4.453125 4.894531 -4.609375 5.15625 -4.921875 C 5.414062 -5.234375 5.546875 -5.585938 5.546875 -5.984375 C 5.546875 -6.210938 5.492188 -6.441406 5.390625 -6.671875 C 5.296875 -6.898438 5.128906 -7.097656 4.890625 -7.265625 C 4.660156 -7.429688 4.351562 -7.515625 3.96875 -7.515625 L 2.640625 -7.515625 Z M 2.640625 -4.453125 "/></g></g></g><g fill="#545454" fill-opacity="1"><g transform="translate(25.239312, 17.927421)"><g><path d="M 5.78125 -2.09375 L 2.546875 -2.09375 L 1.703125 0 L 0.296875 0 L 4.21875 -9.25 L 4.3125 -9.25 L 8.234375 0 L 6.609375 0 Z M 5.3125 -3.3125 L 4.203125 -6.109375 L 3.046875 -3.3125 Z M 5.3125 -3.3125 "/></g></g></g><g fill="#545454" fill-opacity="1"><g transform="translate(36.907756, 17.927421)"><g><path d="M 3.40625 -1.71875 C 3.40625 -1 3.257812 -0.375 2.96875 0.15625 C 2.6875 0.6875 2.289062 1.09375 1.78125 1.375 C 1.28125 1.664062 0.703125 1.820312 0.046875 1.84375 L 0.046875 0.46875 C 0.640625 0.4375 1.109375 0.238281 1.453125 -0.125 C 1.804688 -0.488281 1.984375 -1.03125 1.984375 -1.75 L 1.984375 -8.890625 L 3.40625 -8.890625 Z M 3.40625 -1.71875 "/></g></g></g><g fill="#545454" fill-opacity="1"><g transform="translate(44.671346, 17.927421)"><g><path d="M 5.78125 -2.09375 L 2.546875 -2.09375 L 1.703125 0 L 0.296875 0 L 4.21875 -9.25 L 4.3125 -9.25 L 8.234375 0 L 6.609375 0 Z M 5.3125 -3.3125 L 4.203125 -6.109375 L 3.046875 -3.3125 Z M 5.3125 -3.3125 "/></g></g></g><g fill="#545454" fill-opacity="1"><g transform="translate(56.33979, 17.927421)"><g><path d="M 2.625 -5.03125 L 2.8125 -5.3125 L 6.15625 -8.890625 L 8 -8.890625 L 4.3125 -5 L 8.125 0 L 6.328125 0 L 3.28125 -4.09375 L 2.65625 -3.484375 L 2.65625 0 L 1.21875 0 L 1.21875 -8.890625 L 2.65625 -8.890625 L 2.65625 -5.484375 Z M 2.625 -5.03125 "/></g></g></g><g fill="#545454" fill-opacity="1"><g transform="translate(67.88621, 17.927421)"><g><path d="M 6.53125 -8.890625 L 6.53125 -7.515625 L 4.234375 -7.515625 L 4.234375 0 L 2.8125 0 L 2.8125 -7.515625 L 0.578125 -7.515625 L 0.578125 -8.890625 Z M 6.53125 -8.890625 "/></g></g></g><g fill="#545454" fill-opacity="1"><g transform="translate(78.139146, 17.927421)"><g><path d="M 5.78125 -2.09375 L 2.546875 -2.09375 L 1.703125 0 L 0.296875 0 L 4.21875 -9.25 L 4.3125 -9.25 L 8.234375 0 L 6.609375 0 Z M 5.3125 -3.3125 L 4.203125 -6.109375 L 3.046875 -3.3125 Z M 5.3125 -3.3125 "/></g></g></g></svg>